<svg width="22" height="22" viewBox="0 0 22 22" fill="none" xmlns="http://www.w3.org/2000/svg">
<path fill-rule="evenodd" clip-rule="evenodd" d="M2.75167 0H6.41333C7.94083 0 9.165 1.24583 9.165 2.77442V6.4675C9.165 8.00583 7.94083 9.24083 6.41333 9.24083H2.75167C1.235 9.24083 0 8.00583 0 6.4675V2.77442C0 1.24583 1.235 0 2.75167 0ZM2.75167 12.4255H6.41333C7.94083 12.4255 9.165 13.6616 9.165 15.1999V18.893C9.165 20.4205 7.94083 21.6663 6.41333 21.6663H2.75167C1.235 21.6663 0 20.4205 0 18.893V15.1999C0 13.6616 1.235 12.4255 2.75167 12.4255ZM18.9151 0H15.2534C13.7259 0 12.5018 1.24583 12.5018 2.77442V6.4675C12.5018 8.00583 13.7259 9.24083 15.2534 9.24083H18.9151C20.4318 9.24083 21.6668 8.00583 21.6668 6.4675V2.77442C21.6668 1.24583 20.4318 0 18.9151 0ZM15.2534 12.4255H18.9151C20.4318 12.4255 21.6668 13.6616 21.6668 15.1999V18.893C21.6668 20.4205 20.4318 21.6663 18.9151 21.6663H15.2534C13.7259 21.6663 12.5018 20.4205 12.5018 18.893V15.1999C12.5018 13.6616 13.7259 12.4255 15.2534 12.4255Z" fill="#4676FB"/>
</svg>
