<svg width="18" height="17" viewBox="0 0 18 17" fill="none" xmlns="http://www.w3.org/2000/svg">
<g opacity="0.4">
<path fill-rule="evenodd" clip-rule="evenodd" d="M6.57946 7.69167C6.21487 7.69167 5.9266 7.975 5.9266 8.33333C5.9266 8.68333 6.21487 8.975 6.57946 8.975H11.6667V12.9583C11.6667 15 9.97941 16.6667 7.89365 16.6667H3.76453C1.68726 16.6667 0 15.0083 0 12.9667V3.70833C0 1.65833 1.69574 0 3.77301 0H7.91061C9.97941 0 11.6667 1.65833 11.6667 3.7V7.69167H6.57946ZM14.6917 5.45017L17.1251 7.87517C17.2501 8.00017 17.3167 8.15851 17.3167 8.33351C17.3167 8.50017 17.2501 8.66684 17.1251 8.78351L14.6917 11.2085C14.5667 11.3335 14.4001 11.4002 14.2417 11.4002C14.0751 11.4002 13.9084 11.3335 13.7834 11.2085C13.5334 10.9585 13.5334 10.5502 13.7834 10.3002L15.1167 8.97517H11.6667V7.69184H15.1167L13.7834 6.36684C13.5334 6.11684 13.5334 5.70851 13.7834 5.45851C14.0334 5.20017 14.4417 5.20017 14.6917 5.45017Z" fill="#4676FB"/>
</g>
</svg>
