<svg width="24" height="24" viewBox="0 0 24 24" fill="none" xmlns="http://www.w3.org/2000/svg">
<path fill-rule="evenodd" clip-rule="evenodd" d="M21 12C20.4417 12.2791 19.7911 12.5352 19.0883 12.728C16.9584 13.3125 14.3487 13.3167 12.375 11.625C10.34 9.88067 10.5587 7.23481 11.2841 4.91052C11.4943 4.23672 11.7472 3.58995 12 3C11.2681 3 10.5565 3.08738 9.87526 3.25226C5.9301 4.20712 3 7.76138 3 12C3 16.9706 7.02944 21 12 21C16.2265 21 19.7725 18.0866 20.7395 14.1586C20.9097 13.4671 21 12.7441 21 12ZM18.5666 14.7697C17.4858 17.3289 14.9527 19.125 12 19.125C8.06497 19.125 4.875 15.935 4.875 12C4.875 9.06105 6.6544 6.53771 9.19463 5.44855C9.05195 6.06267 8.94853 6.69871 8.90968 7.3397C8.79243 9.27436 9.26463 11.4285 11.1548 13.0486C12.9092 14.5524 15.0004 15.0094 16.8849 14.9523C17.4583 14.9349 18.0222 14.8702 18.5666 14.7697Z" fill="#13121B"/>
</svg>
