<svg width="43" height="49" viewBox="0 0 43 49" fill="none" xmlns="http://www.w3.org/2000/svg">
<path d="M42.5819 12.3716C42.5819 8.91834 41.0297 6.33595 38.7632 4.52004C36.5737 2.76182 33.7441 1.72612 31.0298 1.09426C26.0793 -0.0595697 20.8569 -0.0128668 18.9888 0.00636372L18.5437 0.00911074V4.12994L19.03 4.12719C20.942 4.11071 25.6672 4.07225 30.0958 5.1052C32.5325 5.67387 34.6836 6.52826 36.1836 7.73429C37.6121 8.87713 38.461 10.3304 38.461 12.3716C38.461 13.9979 38.0023 15.0254 37.3429 15.7507C36.6424 16.5226 35.5407 17.1463 33.9474 17.6023C30.6782 18.5363 26.2002 18.5528 21.2909 18.5528H21.0794C16.4311 18.5528 11.39 18.5528 7.50265 19.6627C5.49169 20.2369 3.59061 21.1599 2.18678 22.7066C0.741749 24.2973 0 26.3604 0 28.8549C0 32.3081 1.55218 34.8905 3.81863 36.7064C6.00816 38.4647 8.8378 39.5004 11.552 40.1322C16.5025 41.286 21.725 41.2393 23.5931 41.2201L24.0382 41.2174H25.9997V48.0854L37.7742 38.4702L25.9997 28.8549V37.0965H24.0382L23.5519 37.0993C21.6398 37.1158 16.9146 37.1542 12.4861 36.1213C10.0493 35.5526 7.89825 34.6982 6.39827 33.4922C4.96972 32.3493 4.12083 30.8961 4.12083 28.8549C4.12083 27.2285 4.57961 26.2011 5.23894 25.4758C5.93948 24.7038 7.04112 24.0802 8.63725 23.6242C11.9037 22.6901 16.3817 22.6737 21.2909 22.6737H21.5025C26.1508 22.6737 31.1919 22.6737 35.0765 21.5638C37.0874 20.9896 38.9913 20.0665 40.3951 18.5199C41.8401 16.9292 42.5819 14.8661 42.5819 12.3716Z" fill="black"/>
</svg>
