<svg width="22" height="23" viewBox="0 0 22 23" fill="none" xmlns="http://www.w3.org/2000/svg">
<path d="M8.8 10.0278C8.19249 10.0278 7.7 10.575 7.7 11.25C7.7 11.925 8.19249 12.4722 8.8 12.4722H13.2C13.8075 12.4722 14.3 11.925 14.3 11.25C14.3 10.575 13.8075 10.0278 13.2 10.0278H8.8Z" fill="#ACC2FF"/>
<path fill-rule="evenodd" clip-rule="evenodd" d="M0 7.03333C0 7.33709 0.246243 7.58333 0.55 7.58333C0.853757 7.58333 1.1 7.82958 1.1 8.13333V19.8056C1.1 21.1556 2.08497 22.25 3.3 22.25H18.7C19.915 22.25 20.9 21.1556 20.9 19.8056V8.13333C20.9 7.82958 21.1462 7.58333 21.45 7.58333C21.7538 7.58333 22 7.33709 22 7.03333V2.69444C22 1.34442 21.015 0.25 19.8 0.25H2.2C0.984974 0.25 0 1.34441 0 2.69444V7.03333ZM19.8 3.91667C19.8 3.24165 19.2528 2.69444 18.5778 2.69444H3.42222C2.74721 2.69444 2.2 3.24165 2.2 3.91667C2.2 4.59168 2.74721 5.13889 3.42222 5.13889H18.5778C19.2528 5.13889 19.8 4.59168 19.8 3.91667ZM3.3 9.58333C3.3 8.47876 4.19543 7.58333 5.3 7.58333H16.7C17.8046 7.58333 18.7 8.47876 18.7 9.58333V17.8056C18.7 18.9101 17.8046 19.8056 16.7 19.8056H5.3C4.19543 19.8056 3.3 18.9101 3.3 17.8056V9.58333Z" fill="#ACC2FF"/>
</svg>
