<svg width="24" height="24" viewBox="0 0 24 24" fill="none" xmlns="http://www.w3.org/2000/svg">
<path fill-rule="evenodd" clip-rule="evenodd" d="M12.1875 0.75C12.7053 0.75 13.125 1.16973 13.125 1.6875V2.8125C13.125 3.33027 12.7053 3.75 12.1875 3.75C11.6697 3.75 11.25 3.33027 11.25 2.8125V1.6875C11.25 1.16973 11.6697 0.75 12.1875 0.75ZM12 16.875C14.6924 16.875 16.875 14.6924 16.875 12C16.875 9.30761 14.6924 7.125 12 7.125C9.30761 7.125 7.125 9.30761 7.125 12C7.125 14.6924 9.30761 16.875 12 16.875ZM12 18.75C15.7279 18.75 18.75 15.7279 18.75 12C18.75 8.27208 15.7279 5.25 12 5.25C8.27208 5.25 5.25 8.27208 5.25 12C5.25 15.7279 8.27208 18.75 12 18.75ZM13.125 21.1875C13.125 20.6697 12.7053 20.25 12.1875 20.25C11.6697 20.25 11.25 20.6697 11.25 21.1875V22.3125C11.25 22.8303 11.6697 23.25 12.1875 23.25C12.7053 23.25 13.125 22.8303 13.125 22.3125V21.1875ZM19.8678 4.70796C20.234 5.07408 20.234 5.66767 19.8678 6.03379L19.0723 6.82928C18.7062 7.1954 18.1126 7.1954 17.7465 6.82928C17.3804 6.46317 17.3804 5.86958 17.7465 5.50346L18.542 4.70796C18.9081 4.34185 19.5017 4.34185 19.8678 4.70796ZM6.53419 19.2387C6.90031 18.8726 6.90031 18.279 6.53419 17.9129C6.16807 17.5468 5.57448 17.5468 5.20836 17.9129L4.41287 18.7084C4.04675 19.0745 4.04675 19.6681 4.41287 20.0342C4.77899 20.4003 5.37258 20.4003 5.73869 20.0342L6.53419 19.2387ZM23.25 12.9375C23.25 13.4553 22.8303 13.875 22.3125 13.875H21.1875C20.6697 13.875 20.25 13.4553 20.25 12.9375C20.25 12.4197 20.6697 12 21.1875 12H22.3125C22.8303 12 23.25 12.4197 23.25 12.9375ZM2.8125 13.875C3.33027 13.875 3.75 13.4553 3.75 12.9375C3.75 12.4197 3.33027 12 2.8125 12H1.6875C1.16973 12 0.75 12.4197 0.75 12.9375C0.75 13.4553 1.16973 13.875 1.6875 13.875H2.8125ZM19.4584 20.0342C19.0922 20.4004 18.4987 20.4004 18.1325 20.0342L17.337 19.2387C16.9709 18.8726 16.9709 18.279 17.337 17.9129C17.7032 17.5468 18.2968 17.5468 18.6629 17.9129L19.4584 18.7084C19.8245 19.0745 19.8245 19.6681 19.4584 20.0342ZM4.63254 6.82925C4.99866 7.19537 5.59225 7.19537 5.95836 6.82925C6.32448 6.46314 6.32448 5.86954 5.95836 5.50343L5.16287 4.70793C4.79675 4.34182 4.20316 4.34181 3.83704 4.70793C3.47093 5.07405 3.47093 5.66764 3.83704 6.03376L4.63254 6.82925Z" fill="#13121B"/>
</svg>
