<svg width="24" height="24" viewBox="0 0 24 24" fill="none" xmlns="http://www.w3.org/2000/svg">
<path fill-rule="evenodd" clip-rule="evenodd" d="M13 4.00002C13 3.60623 12.7689 3.2491 12.4097 3.08778C12.0504 2.92646 11.63 2.99099 11.3356 3.25261L7.11979 7.00003H5C3.34315 7.00003 2 8.34318 2 10V14C2 15.6569 3.34315 17 5 17H7.11983L11.3356 20.7474C11.63 21.009 12.0504 21.0736 12.4097 20.9123C12.7689 20.7509 13 20.3938 13 20V4.00002ZM9 15.9954L11 17.7732V6.22686L9 8.00465V15.9954ZM5 9.00003H7V15H5C4.44772 15 4 14.5523 4 14V10C4 9.44775 4.44772 9.00003 5 9.00003Z" fill="#13121B"/>
<path d="M15.0871 14.3371C14.721 14.7032 14.721 15.2968 15.0871 15.6629C15.4532 16.0291 16.0468 16.0291 16.4129 15.6629L18.5625 13.5134L20.7121 15.6629C21.0782 16.0291 21.6718 16.0291 22.0379 15.6629C22.404 15.2968 22.404 14.7032 22.0379 14.3371L19.8883 12.1875L22.0379 10.0379C22.404 9.67183 22.404 9.07823 22.0379 8.71212C21.6718 8.346 21.0782 8.346 20.7121 8.71212L18.5625 10.8617L16.4129 8.71212C16.0468 8.346 15.4532 8.346 15.0871 8.71212C14.721 9.07823 14.721 9.67183 15.0871 10.0379L17.2367 12.1875L15.0871 14.3371Z" fill="#13121B"/>
</svg>
